<svg width="199" height="212" viewBox="0 0 199 212" fill="none" xmlns="http://www.w3.org/2000/svg">
<path d="M77.1157 46.1134C83.8567 34.4258 94.0785 25.1326 106.361 19.525C118.643 13.9175 132.376 12.2741 145.651 14.8232C146.769 11.8982 148.509 9.25134 150.751 7.06534C152.994 4.87934 155.685 3.20621 158.64 2.16139C161.594 1.11657 164.742 0.72494 167.865 1.01351C170.988 1.30207 174.013 2.26397 176.73 3.83284C179.448 5.40171 181.793 7.54019 183.605 10.1007C185.416 12.6613 186.651 15.5829 187.223 18.6641C187.796 21.7453 187.692 24.9127 186.92 27.9477C186.149 30.9827 184.726 33.813 182.752 36.2435C191.571 46.4711 196.99 59.1808 198.257 72.6097C199.525 86.0387 196.579 99.5213 189.828 111.188L157.359 167.425L174.714 202.44L169.303 211.812L0.234709 114.201L5.64615 104.828L44.647 102.351L77.1157 46.1134ZM98.1426 183.225C95.2722 188.197 90.5402 191.822 84.9875 193.304C79.4349 194.785 73.5165 194.002 68.5344 191.125C63.5522 188.249 59.9143 183.515 58.4211 177.966C56.9278 172.416 57.7015 166.506 60.5719 161.534L98.1426 183.225Z" fill="#FFBF00"/>
</svg>
