<svg width="24" height="19" viewBox="0 0 24 19" fill="none" xmlns="http://www.w3.org/2000/svg">
<path d="M3.82993 8.92458C3.74476 10.5532 3.84276 12.2869 2.38793 13.3777C2.05345 13.628 1.78203 13.953 1.59528 14.3267C1.40854 14.7004 1.31162 15.1125 1.31226 15.5302C1.31226 16.6934 2.22459 17.6851 3.41226 17.6851H20.2123C21.3999 17.6851 22.3123 16.6934 22.3123 15.5302C22.3123 14.6832 21.9133 13.8852 21.2366 13.3777C19.7818 12.2869 19.8798 10.5532 19.7946 8.92458C19.6896 6.87835 18.8028 4.95057 17.3173 3.53936C15.8319 2.12816 13.8612 1.34131 11.8123 1.34131C9.76333 1.34131 7.79264 2.12816 6.30718 3.53936C4.82171 4.95057 3.93491 6.87835 3.82993 8.92458Z" stroke="white" stroke-width="2" stroke-linecap="round" stroke-linejoin="round"/>
</svg>
