<svg width="24" height="27" viewBox="0 0 24 27" fill="none" xmlns="http://www.w3.org/2000/svg">
<path d="M3.82993 12.9246C3.74476 14.5532 3.84276 16.2869 2.38793 17.3777C2.05345 17.628 1.78203 17.953 1.59528 18.3267C1.40854 18.7004 1.31162 19.1125 1.31226 19.5302C1.31226 20.6934 2.22459 21.6851 3.41226 21.6851H20.2123C21.3999 21.6851 22.3123 20.6934 22.3123 19.5302C22.3123 18.6832 21.9133 17.8852 21.2366 17.3777C19.7818 16.2869 19.8798 14.5532 19.7946 12.9246C19.6896 10.8783 18.8028 8.95057 17.3173 7.53936C15.8319 6.12816 13.8612 5.34131 11.8123 5.34131C9.76333 5.34131 7.79264 6.12816 6.30718 7.53936C4.82171 8.95057 3.93491 10.8783 3.82993 12.9246Z" stroke="white" stroke-width="2" stroke-linecap="round" stroke-linejoin="round"/>
<path d="M15.3123 21.6849C15.3123 22.6132 14.9435 23.5034 14.2871 24.1598C13.6308 24.8161 12.7405 25.1849 11.8123 25.1849C10.884 25.1849 9.99376 24.8161 9.33738 24.1598C8.681 23.5034 8.31226 22.6132 8.31226 21.6849M10.0623 3.16406C10.0623 4.13006 10.8463 5.35156 11.8123 5.35156C12.7783 5.35156 13.5623 4.13006 13.5623 3.16406C13.5623 2.19806 12.7783 1.85156 11.8123 1.85156C10.8463 1.85156 10.0623 2.19806 10.0623 3.16406Z" stroke="white" stroke-width="2" stroke-linecap="round" stroke-linejoin="round"/>
</svg>
