<svg width="46" height="46" viewBox="0 0 46 46" fill="none" xmlns="http://www.w3.org/2000/svg">
<rect width="46" height="46" rx="23" fill="#FFBF00"/>
<path fill-rule="evenodd" clip-rule="evenodd" d="M31.6588 16.3766C31.7669 16.2746 31.8526 16.1536 31.9112 16.0203C31.9697 15.8871 31.9999 15.7442 32 15.6C32.0001 15.4557 31.9701 15.3128 31.9117 15.1795C31.8534 15.0462 31.7678 14.925 31.6598 14.8229C31.5519 14.7209 31.4237 14.6399 31.2826 14.5846C31.1415 14.5293 30.9903 14.5008 30.8375 14.5007C30.6847 14.5006 30.5335 14.5289 30.3923 14.584C30.2511 14.6392 30.1228 14.72 30.0148 14.822L22.9999 21.4473L15.987 14.822C15.7687 14.6158 15.4726 14.5 15.1639 14.5C14.8552 14.5 14.5592 14.6158 14.3409 14.822C14.1226 15.0281 14 15.3077 14 15.5993C14 15.8908 14.1226 16.1704 14.3409 16.3766L21.3558 23L14.3409 29.6234C14.2328 29.7255 14.1471 29.8467 14.0886 29.98C14.0301 30.1134 14 30.2563 14 30.4007C14 30.5451 14.0301 30.688 14.0886 30.8214C14.1471 30.9548 14.2328 31.0759 14.3409 31.178C14.5592 31.3842 14.8552 31.5 15.1639 31.5C15.3168 31.5 15.4681 31.4716 15.6093 31.4163C15.7506 31.3611 15.8789 31.2801 15.987 31.178L22.9999 24.5527L30.0148 31.178C30.233 31.3839 30.529 31.4995 30.8375 31.4993C31.146 31.4991 31.4418 31.3832 31.6598 31.1771C31.8778 30.9709 32.0002 30.6914 32 30.4C31.9998 30.1087 31.8771 29.8293 31.6588 29.6234L24.6439 23L31.6588 16.3766Z" fill="white"/>
</svg>
