<svg width="20" height="13" viewBox="0 0 20 13" fill="none" xmlns="http://www.w3.org/2000/svg">
<path d="M11.9031 5.35645C11.9344 5.66895 11.9969 5.9502 11.9969 6.35645C11.9969 9.79395 9.68439 12.2002 6.21564 12.2002C2.90314 12.2002 0.215637 9.54395 0.215637 6.2002C0.215637 2.8877 2.90314 0.200195 6.21564 0.200195C7.84064 0.200195 9.18439 0.793945 10.2469 1.79395L8.62189 3.35645C8.18439 2.91895 7.40314 2.41895 6.21564 2.41895C4.18439 2.41895 2.49689 4.10645 2.49689 6.2002C2.49689 8.3252 4.18439 10.0127 6.21564 10.0127C8.59064 10.0127 9.49689 8.29395 9.62189 7.41895H6.21564V5.35645H11.9031ZM17.6844 5.54395H19.4344V7.29395H17.6844V9.04395H15.9344V7.29395H14.1844V5.54395H15.9344V3.8252H17.6844V5.54395Z" fill="white" fill-opacity="0.8"/>
</svg>
