<svg width="132" height="121" viewBox="0 0 132 121" fill="none" xmlns="http://www.w3.org/2000/svg">
<rect width="132" height="121" rx="14" fill="black"/>
<g clip-path="url(#clip0_4_420)">
<path d="M110.821 11.5L70.4863 41.641L77.9869 23.878L110.821 11.5Z" fill="#E17726"/>
<path d="M21.2736 11.5356L54.0197 23.8803L61.1417 41.8761L21.2736 11.5356ZM94.5895 75.6016L112.417 75.9442L106.186 97.3198L84.4331 91.2711L94.5895 75.6016ZM37.4107 75.6016L47.5293 91.2711L25.8127 97.3202L19.6201 75.9442L37.4107 75.6016Z" fill="#E27625"/>
<path d="M60.1734 37.292L60.9019 61.0561L39.1016 60.0545L45.3026 50.6064L45.3812 50.5155L60.1734 37.292ZM71.6013 37.0269L86.6193 50.5163L86.6971 50.6068L92.8982 60.0549L71.1027 61.0561L71.6013 37.0269ZM48.1678 75.6703L60.0713 85.0372L46.2437 91.7793L48.1678 75.6703ZM83.8349 75.6688L85.719 91.7797L71.93 85.0364L83.8349 75.6688Z" fill="#E27625"/>
<path d="M72.2342 84.1543L86.2266 90.9969L73.2109 97.244L73.346 93.1151L72.2342 84.1543ZM59.7619 84.1573L58.6938 93.0476L58.7815 97.2392L45.7354 90.9969L59.7619 84.1573Z" fill="#D5BFB2"/>
<path d="M55.721 64.1582L59.3775 71.919L46.9287 68.2359L55.721 64.1582ZM76.278 64.159L85.1118 68.2359L72.6223 71.9179L76.278 64.159Z" fill="#233447"/>
<path d="M49.1189 75.5913L47.1067 92.2936L36.3213 75.9566L49.1189 75.5913ZM82.8818 75.5917L95.6797 75.9566L84.8539 92.2944L82.8818 75.5917ZM93.213 59.1104L83.8992 68.6968L76.7182 65.3826L73.2802 72.6821L71.0264 60.1298L93.213 59.1104ZM38.7822 59.1104L60.9732 60.1298L58.719 72.6821L55.2803 65.3837L48.1374 68.6971L38.7822 59.1104Z" fill="#CC6228"/>
<path d="M38.1543 57.1428L48.6918 67.9419L49.0568 78.6029L38.1543 57.1428ZM93.8555 57.1235L82.9332 78.6219L83.3444 67.9419L93.8555 57.1235ZM60.4576 57.8007L60.8817 60.4966L61.9297 67.2128L61.2559 87.8404L58.0705 71.2697L58.0694 71.0984L60.4576 57.8007ZM71.536 57.7632L73.9305 71.0984L73.9294 71.2697L70.7359 87.8819L70.6096 83.7267L70.1114 67.0904L71.536 57.7632Z" fill="#E27525"/>
<path d="M84.2813 67.5127L83.9248 76.7754L72.8086 85.5222L70.5614 83.9187L73.0803 70.8153L84.2813 67.5127ZM47.7568 67.5127L58.919 70.8153L61.4379 83.9187L59.1907 85.5222L48.0741 76.7746L47.7568 67.5127Z" fill="#F5841F"/>
<path d="M43.6084 88.9517L57.8303 95.7572L57.7701 92.851L58.9601 91.796H73.0359L74.2689 92.8473L74.1779 95.7513L88.3098 88.9687L81.4331 94.7077L73.1182 100.475H58.8459L50.5365 94.684L43.6084 88.9517Z" fill="#C0AC9D"/>
<path d="M71.2154 83.2485L73.2262 84.6833L74.4045 94.1781L72.6992 92.7241H59.3057L57.6328 94.2074L58.7726 84.684L60.784 83.2485H71.2154Z" fill="#161616"/>
<path d="M108.158 12.3345L113 27.0035L109.976 41.8357L112.129 43.513L109.216 45.7581L111.406 47.4661L108.506 50.1328L110.286 51.4348L105.562 57.0069L86.1854 51.3091L86.0176 51.2182L72.0546 39.3226L108.158 12.3345ZM23.8417 12.3345L59.9458 39.3226L45.9824 51.2182L45.8146 51.3091L26.4381 57.0069L21.7139 51.4348L23.4925 50.1339L20.5947 47.4661L22.7802 45.7599L19.8229 43.5086L22.0572 41.8302L19 27.0043L23.8417 12.3345Z" fill="#763E1A"/>
<path d="M85.2374 50.0627L105.768 56.0995L112.438 76.861H94.8409L82.7163 77.0153L91.534 59.6573L85.2374 50.0627ZM46.7621 50.0627L40.4644 59.6573L49.2832 77.0153L37.1641 76.861H19.5986L26.2311 56.0999L46.7621 50.0627ZM78.9923 23.7788L73.2499 39.4424L72.0312 60.6022L71.5648 67.2345L71.5278 84.1772H60.4714L60.4354 67.2664L59.9676 60.5966L58.7485 39.4424L53.0068 23.7788H78.9923Z" fill="#F5841F"/>
</g>
<defs>
<clipPath id="clip0_4_420">
<rect width="94" height="89" fill="white" transform="translate(19 11.5)"/>
</clipPath>
</defs>
</svg>
