<svg width="1022" height="1551" viewBox="0 0 1022 1551" fill="none" xmlns="http://www.w3.org/2000/svg">
<path d="M679.601 367.211C605.204 422.943 468.026 566.264 514.488 693.694C560.949 821.124 413.18 1000.6 333.487 1074.41" stroke="#FFBF00" stroke-width="0.915278"/>
<path d="M663.721 360.717C587.135 415.172 442.94 557.1 478.845 689.168C514.751 821.236 357.578 999.806 274.504 1072.58" stroke="#FFBF00" stroke-width="0.915278"/>
<path d="M648.473 354.513C569.848 407.586 418.918 547.842 444.197 684.29C469.476 820.737 303.208 998.05 216.915 1069.65" stroke="#FFBF00" stroke-width="0.915278"/>
<path d="M633.82 348.629C553.31 400.214 395.941 538.525 410.544 679.085C425.146 819.644 250.109 995.354 160.765 1065.64" stroke="#FFBF00" stroke-width="0.915278"/>
<path d="M619.723 343.092C537.486 393.09 373.985 529.184 377.883 673.581C381.782 817.978 198.317 991.74 106.098 1060.57" stroke="#FFBF00" stroke-width="0.915278"/>
<path d="M606.142 337.931C522.338 386.243 353.026 519.854 346.212 667.806C339.398 815.757 147.866 987.232 52.9518 1054.47" stroke="#FFBF00" stroke-width="0.915278"/>
<path d="M593.037 333.173C507.83 379.704 333.038 510.571 315.525 661.788C298.013 813.004 98.7873 981.855 1.36385 1047.38" stroke="#FFBF00" stroke-width="0.915278"/>
<path d="M580.365 328.843C493.922 373.503 313.993 501.369 285.816 655.554C257.638 809.739 51.1101 975.636 -48.6318 1039.31" stroke="#FFBF00" stroke-width="0.915278"/>
<path d="M568.084 324.966C480.575 367.667 295.86 492.282 257.073 649.135C218.287 805.987 4.85996 968.605 -97.0051 1030.31" stroke="#FFBF00" stroke-width="0.915278"/>
<path d="M556.15 321.568C467.746 362.227 278.608 483.347 229.287 642.559C179.967 801.772 -39.9406 960.793 -143.729 1020.4" stroke="#FFBF00" stroke-width="0.915278"/>
<path d="M544.521 318.672C455.394 357.208 262.202 474.597 202.445 635.857C142.687 797.118 -83.2706 952.231 -188.78 1009.63" stroke="#FFBF00" stroke-width="0.915278"/>
<path d="M533.15 316.299C443.476 352.638 246.608 466.064 176.531 629.058C106.454 792.051 -125.112 942.952 -232.136 998.028" stroke="#FFBF00" stroke-width="0.915278"/>
<path d="M521.993 314.472C431.947 348.542 231.789 457.785 151.529 622.192C71.2691 786.599 -165.452 932.992 -273.78 985.638" stroke="#FFBF00" stroke-width="0.915278"/>
<path d="M511.004 313.21C420.762 344.945 217.706 449.79 127.421 615.289C37.1349 780.788 -204.277 922.387 -313.698 972.5" stroke="#FFBF00" stroke-width="0.915278"/>
<path d="M500.138 312.534C409.876 341.872 204.32 442.113 104.185 608.38C4.05071 774.647 -241.58 911.175 -351.879 958.656" stroke="#FFBF00" stroke-width="0.915278"/>
<path d="M489.348 312.461C399.244 339.344 191.589 434.787 81.8012 601.496C-27.9862 768.204 -277.355 899.394 -388.316 944.151" stroke="#FFBF00" stroke-width="0.915278"/>
<path d="M478.587 313.008C388.817 337.383 179.47 427.84 60.2445 594.665C-58.981 761.49 -311.6 887.085 -423.006 929.029" stroke="#FFBF00" stroke-width="0.915278"/>
<path d="M467.81 314.191C378.55 336.011 167.921 421.305 39.4909 587.919C-88.9392 754.533 -344.313 874.287 -455.947 913.337" stroke="#FFBF00" stroke-width="0.915278"/>
<path d="M456.971 316.024C368.394 335.246 156.896 415.21 19.5127 581.288C-117.871 747.365 -375.5 861.043 -487.142 897.123" stroke="#FFBF00" stroke-width="0.915278"/>
<path d="M446.022 318.521C358.304 335.108 146.35 409.585 0.282064 574.801C-145.786 740.016 -405.166 847.397 -516.598 880.435" stroke="#FFBF00" stroke-width="0.915278"/>
<path d="M434.919 321.694C348.23 335.613 136.235 404.457 -18.2312 568.488C-172.697 732.518 -433.321 833.39 -544.325 863.322" stroke="#FFBF00" stroke-width="0.915278"/>
<path d="M423.615 325.553C338.124 336.776 126.504 399.853 -36.0581 562.377C-198.62 724.902 -459.977 819.068 -570.336 845.836" stroke="#FFBF00" stroke-width="0.915278"/>
<path d="M412.065 330.107C327.941 338.613 117.109 395.8 -53.2309 556.499C-223.571 717.199 -485.149 804.475 -594.646 828.026" stroke="#FFBF00" stroke-width="0.915278"/>
<path d="M400.224 335.364C317.631 341.136 108 392.32 -69.7835 550.881C-247.567 709.442 -508.856 789.657 -617.277 809.944" stroke="#FFBF00" stroke-width="0.915278"/>
<path d="M388.048 341.331C307.148 344.358 99.129 389.439 -85.7512 545.551C-270.631 701.662 -531.118 774.659 -638.251 791.644" stroke="#FFBF00" stroke-width="0.915278"/>
<path d="M375.494 348.013C296.446 348.288 90.4451 387.179 -101.169 540.535C-292.784 693.891 -551.958 759.528 -657.594 773.177" stroke="#FFBF00" stroke-width="0.915278"/>
<path d="M362.519 355.413C285.476 352.937 81.8977 385.56 -116.076 535.861C-314.05 686.162 -571.405 744.309 -675.336 754.595" stroke="#FFBF00" stroke-width="0.915278"/>
<path d="M349.081 363.533C274.195 358.311 73.4367 384.603 -130.509 531.554C-334.454 678.506 -589.486 729.05 -691.509 735.953" stroke="#FFBF00" stroke-width="0.915278"/>
<path d="M335.138 372.376C262.555 364.417 65.0103 384.327 -144.508 527.641C-354.026 670.955 -606.235 713.798 -706.15 717.304" stroke="#FFBF00" stroke-width="0.915278"/>
<path d="M320.65 381.941C250.512 371.261 56.5679 384.749 -158.113 524.146C-372.793 663.542 -621.687 698.599 -719.298 698.702" stroke="#FFBF00" stroke-width="0.915278"/>
<path d="M305.578 392.224C238.024 378.844 48.059 385.884 -171.364 521.09C-390.786 656.297 -635.876 683.498 -730.994 680.198" stroke="#FFBF00" stroke-width="0.915278"/>
<path d="M289.886 403.223C225.046 387.169 39.4335 387.748 -184.302 518.499C-408.037 649.25 -648.844 668.544 -741.281 661.847" stroke="#FFBF00" stroke-width="0.915278"/>
<path d="M273.535 414.934C211.537 396.237 30.6396 390.353 -196.97 516.393C-424.58 642.433 -660.633 653.781 -750.208 643.7" stroke="#FFBF00" stroke-width="0.915278"/>
<path d="M256.49 427.349C197.456 406.047 21.6274 393.712 -209.411 514.793C-440.45 635.875 -671.287 639.256 -757.825 625.811" stroke="#FFBF00" stroke-width="0.915278"/>
<path d="M238.718 440.463C182.763 416.596 12.3475 397.834 -221.668 513.721C-455.684 629.608 -680.852 625.014 -764.184 608.231" stroke="#FFBF00" stroke-width="0.915278"/>
<path d="M220.186 454.265C167.419 427.881 2.75038 402.728 -233.784 513.193C-470.318 623.658 -689.377 611.099 -769.34 591.012" stroke="#FFBF00" stroke-width="0.915278"/>
<path d="M200.862 468.746C151.386 439.896 -7.21296 408.402 -245.803 513.229C-484.393 618.056 -696.914 597.556 -773.351 574.203" stroke="#FFBF00" stroke-width="0.915278"/>
<path d="M180.717 483.893C134.63 452.634 -17.5889 414.861 -257.767 513.844C-497.946 612.828 -703.513 584.428 -776.274 557.854" stroke="#FFBF00" stroke-width="0.915278"/>
<path d="M159.723 499.695C117.115 466.087 -28.4263 422.109 -269.723 515.055C-511.02 608.002 -709.231 571.756 -778.174 542.015" stroke="#FFBF00" stroke-width="0.915278"/>
<path d="M137.855 516.137C98.8081 480.247 -39.7704 430.149 -281.713 516.877C-523.656 603.604 -714.123 559.585 -779.113 526.734" stroke="#FFBF00" stroke-width="0.915278"/>
<path d="M115.086 533.203C79.6779 495.101 -51.6667 438.981 -293.782 519.32C-535.898 599.66 -718.247 547.952 -779.157 512.056" stroke="#FFBF00" stroke-width="0.915278"/>
<path d="M91.3943 550.877C59.6942 510.637 -64.1593 448.606 -305.973 522.399C-547.787 596.193 -721.662 536.898 -778.373 498.027" stroke="#FFBF00" stroke-width="0.915278"/>
<path d="M66.7588 569.142C38.8287 526.843 -77.2914 459.022 -318.331 526.125C-559.37 593.228 -724.43 526.462 -776.831 484.692" stroke="#FFBF00" stroke-width="0.915278"/>
<path d="M41.1605 587.977C17.0549 543.703 -91.1043 470.224 -330.897 530.505C-570.689 590.786 -726.612 516.681 -774.599 472.093" stroke="#FFBF00" stroke-width="0.915278"/>
<path d="M14.5823 607.364C-5.65153 561.2 -105.638 482.208 -343.715 535.549C-581.791 588.891 -728.271 507.59 -771.751 460.273" stroke="#FFBF00" stroke-width="0.915278"/>
</svg>
