<svg width="426" height="426" viewBox="0 0 426 426" fill="none" xmlns="http://www.w3.org/2000/svg">
<path d="M213 0C269.491 0 323.668 22.441 363.614 62.3863C403.559 102.332 426 156.509 426 213C426 269.491 403.559 323.668 363.614 363.614C323.668 403.559 269.491 426 213 426C156.509 426 102.332 403.559 62.3863 363.614C22.441 323.668 0 269.491 0 213C0 156.509 22.441 102.332 62.3863 62.3863C102.332 22.441 156.509 0 213 0ZM224.289 91.0423C199.52 91.0423 180.107 98.0713 165.714 112.129C150.987 126.187 143.958 145.601 143.958 170.37H182.115C182.115 156.312 184.793 145.266 190.483 137.568C196.842 128.196 207.219 123.844 221.946 123.844C233.326 123.844 242.364 126.857 248.723 133.216C254.748 139.576 258.095 148.278 258.095 159.324C258.095 167.692 255.083 175.725 249.058 183.089L245.041 187.775C223.285 207.188 210.231 221.246 205.88 230.283C201.194 239.321 199.185 250.366 199.185 263.085V267.771H237.678V263.085C237.678 255.052 239.351 248.023 242.698 241.329C245.711 235.304 250.062 229.614 256.087 224.593C272.153 210.535 281.86 201.498 284.872 198.151C292.905 187.44 297.257 173.717 297.257 156.981C297.257 136.563 290.562 120.497 277.174 108.782C263.785 96.7324 246.045 91.0423 224.289 91.0423ZM218.264 284.172C211.439 283.988 204.82 286.515 199.855 291.201C197.403 293.51 195.477 296.319 194.207 299.438C192.936 302.556 192.351 305.911 192.491 309.276C192.491 316.64 194.834 322.665 199.855 327.351C204.782 332.133 211.398 334.779 218.264 334.714C225.628 334.714 231.653 332.371 236.673 327.685C239.177 325.329 241.156 322.472 242.482 319.3C243.809 316.128 244.452 312.713 244.372 309.276C244.436 305.921 243.816 302.588 242.55 299.481C241.284 296.373 239.398 293.556 237.008 291.201C231.914 286.507 225.189 283.985 218.264 284.172Z" fill="#FFBF00" fill-opacity="0.5"/>
</svg>
