<svg width="25" height="27" viewBox="0 0 25 27" fill="none" xmlns="http://www.w3.org/2000/svg">
<path d="M15.0399 0.5C15.2338 0.500006 15.4228 0.562407 15.5795 0.678216C15.7363 0.794025 15.8527 0.957266 15.9121 1.14443L16.9198 4.31829C17.3431 4.52814 17.7481 4.764 18.1347 5.02957L21.3523 4.32757C21.542 4.28652 21.7397 4.30756 21.9168 4.38766C22.094 4.46776 22.2415 4.60278 22.3381 4.77329L24.8777 9.22857C24.9747 9.39898 25.0157 9.59619 24.995 9.79179C24.9742 9.98738 24.8927 10.1712 24.7623 10.3169L22.5543 12.7869C22.5864 13.2605 22.5864 13.7358 22.5543 14.2094L24.7623 16.6831C24.8927 16.8288 24.9742 17.0126 24.995 17.2082C25.0157 17.4038 24.9747 17.601 24.8777 17.7714L22.3381 22.2286C22.2412 22.3987 22.0936 22.5334 21.9165 22.6131C21.7393 22.6929 21.5418 22.7136 21.3523 22.6724L18.1347 21.9704C17.7499 22.2341 17.3431 22.4719 16.9217 22.6817L15.9121 25.8556C15.8527 26.0427 15.7363 26.206 15.5795 26.3218C15.4228 26.4376 15.2338 26.5 15.0399 26.5H9.96062C9.76666 26.5 9.5777 26.4376 9.42096 26.3218C9.26422 26.206 9.14779 26.0427 9.08843 25.8556L8.08248 22.6836C7.66036 22.4743 7.2532 22.2354 6.86397 21.9686L3.64822 22.6724C3.45851 22.7135 3.26084 22.6924 3.08368 22.6123C2.90652 22.5322 2.75902 22.3972 2.66242 22.2267L0.122801 17.7714C0.0258239 17.601 -0.0152528 17.4038 0.00549424 17.2082C0.0262413 17.0126 0.10774 16.8288 0.238238 16.6831L2.44621 14.2094C2.41421 13.737 2.41421 13.263 2.44621 12.7906L0.238238 10.3169C0.10774 10.1712 0.0262413 9.98738 0.00549424 9.79179C-0.0152528 9.59619 0.0258239 9.39898 0.122801 9.22857L2.66242 4.77143C2.75929 4.60127 2.9069 4.46662 3.08404 4.38687C3.26117 4.30711 3.4587 4.28635 3.64822 4.32757L6.86397 5.03143C7.25243 4.76586 7.65921 4.52629 8.08248 4.31643L9.09026 1.14443C9.14942 0.957869 9.2653 0.79506 9.42131 0.679307C9.57731 0.563554 9.76545 0.500791 9.95879 0.5H15.038H15.0399ZM14.3692 2.35714H10.6313L9.59049 5.63871L8.88871 5.986C8.5437 6.1571 8.21066 6.35194 7.89191 6.56914L7.24327 7.01486L3.91574 6.28686L2.04676 9.57028L4.32802 12.1294L4.27305 12.9169C4.24671 13.3052 4.24671 13.6948 4.27305 14.0831L4.32802 14.8706L2.04309 17.4297L3.91391 20.7131L7.24143 19.987L7.89008 20.4309C8.20883 20.6481 8.54187 20.8429 8.88687 21.014L9.58866 21.3613L10.6313 24.6429H14.3729L15.4173 21.3594L16.1173 21.014C16.4619 20.8433 16.7944 20.6485 17.1122 20.4309L17.7591 19.987L21.0884 20.7131L22.9574 17.4297L20.6743 14.8706L20.7293 14.0831C20.7557 13.6942 20.7557 13.3039 20.7293 12.915L20.6743 12.1276L22.9592 9.57028L21.0884 6.28686L17.7591 7.01114L17.1122 6.56914C16.7944 6.35154 16.4619 6.15669 16.1173 5.986L15.4173 5.64057L14.3711 2.35714H14.3692ZM12.5002 7.92857C13.9581 7.92857 15.3563 8.51556 16.3872 9.5604C17.4181 10.6053 17.9973 12.0224 17.9973 13.5C17.9973 14.9776 17.4181 16.3947 16.3872 17.4396C15.3563 18.4844 13.9581 19.0714 12.5002 19.0714C11.0423 19.0714 9.64416 18.4844 8.61327 17.4396C7.58238 16.3947 7.00323 14.9776 7.00323 13.5C7.00323 12.0224 7.58238 10.6053 8.61327 9.5604C9.64416 8.51556 11.0423 7.92857 12.5002 7.92857ZM12.5002 9.78571C11.5283 9.78571 10.5962 10.177 9.90893 10.8736C9.22167 11.5702 8.83557 12.5149 8.83557 13.5C8.83557 14.4851 9.22167 15.4298 9.90893 16.1264C10.5962 16.823 11.5283 17.2143 12.5002 17.2143C13.4722 17.2143 14.4043 16.823 15.0916 16.1264C15.7788 15.4298 16.1649 14.4851 16.1649 13.5C16.1649 12.5149 15.7788 11.5702 15.0916 10.8736C14.4043 10.177 13.4722 9.78571 12.5002 9.78571Z" fill="white"/>
</svg>
