<svg width="25" height="24" viewBox="0 0 25 24" fill="none" xmlns="http://www.w3.org/2000/svg">
<path d="M12.3691 23.8869C10.6736 23.8869 9.07675 23.5835 7.57843 22.9768C6.0801 22.3693 4.77523 21.5447 3.6638 20.503C2.55238 19.4614 1.67181 18.2395 1.02211 16.8373C0.372413 15.435 0.0484756 13.9397 0.0503006 12.3511C0.0503006 10.7584 0.374238 9.26171 1.02211 7.86119C1.6709 6.45981 2.55146 5.23916 3.6638 4.19924C4.77614 3.15932 6.08101 2.33473 7.57843 1.72547C9.07675 1.11878 10.6736 0.81543 12.3691 0.81543C14.07 0.81543 15.6682 1.11878 17.1638 1.72547C18.6603 2.33302 19.9642 3.15761 21.0757 4.19924C22.1871 5.24087 23.0672 6.46152 23.716 7.86119C24.3639 9.26256 24.6878 10.7592 24.6878 12.3511C24.6878 13.9388 24.3639 15.4342 23.716 16.8373C23.0672 18.2403 22.1866 19.4623 21.0743 20.503C19.962 21.5438 18.6585 22.3684 17.1638 22.9768C15.6691 23.5852 14.0709 23.8886 12.3691 23.8869ZM12.3691 22.6154C13.1721 21.6489 13.8345 20.7 14.3565 19.7686C14.8775 18.8372 15.3014 17.7947 15.628 16.6411H9.11006C9.47232 17.8597 9.90485 18.9346 10.4076 19.866C10.9113 20.7974 11.5651 21.7139 12.3691 22.6154ZM10.6266 22.4231C9.98788 21.7181 9.4048 20.8466 8.87737 19.8083C8.34995 18.771 7.95757 17.7148 7.70024 16.6399H2.45109C3.23584 18.2335 4.34772 19.5409 5.78673 20.562C7.22666 21.5823 8.83996 22.2026 10.6266 22.4231ZM14.1115 22.4231C15.8981 22.2026 17.5114 21.5823 18.9514 20.562C20.3904 19.5409 21.5023 18.2335 22.287 16.6399H17.0392C16.6925 17.7311 16.2558 18.7953 15.7293 19.8327C15.2019 20.8709 14.6626 21.7352 14.1115 22.4231ZM1.89264 15.3594H7.41554C7.31152 14.833 7.23852 14.3203 7.19655 13.8213C7.15275 13.3231 7.13085 12.8331 7.13085 12.3511C7.13085 11.8692 7.15229 11.3791 7.19518 10.881C7.23806 10.3828 7.31106 9.87011 7.41418 9.34288H1.89401C1.74527 9.78722 1.62893 10.2713 1.54498 10.7951C1.46103 11.3181 1.41905 11.8367 1.41905 12.3511C1.41905 12.8655 1.46057 13.3847 1.54361 13.9085C1.62664 14.4323 1.74299 14.9155 1.89264 15.3581M8.7843 15.3581H15.9538C16.0578 14.8326 16.1308 14.3284 16.1728 13.8457C16.2166 13.3637 16.2385 12.8655 16.2385 12.3511C16.2385 11.8367 16.2171 11.3386 16.1742 10.8566C16.1313 10.3747 16.0583 9.87054 15.9552 9.34417H8.78293C8.67981 9.86968 8.60681 10.3738 8.56393 10.8566C8.52104 11.3386 8.4996 11.8367 8.4996 12.3511C8.4996 12.8655 8.52104 13.3637 8.56393 13.8457C8.60681 14.3276 8.68118 14.8317 8.7843 15.3581ZM17.3239 15.3581H22.8455C22.9942 14.9146 23.1105 14.4314 23.1945 13.9085C23.2775 13.3847 23.3191 12.8655 23.3191 12.3511C23.3191 11.8367 23.2775 11.3176 23.1945 10.7938C23.1115 10.27 22.9951 9.7868 22.8455 9.34417H17.3226C17.4266 9.86968 17.4996 10.382 17.5416 10.881C17.5854 11.38 17.6073 11.8701 17.6073 12.3511C17.6073 12.8322 17.5858 13.3223 17.5429 13.8213C17.5 14.3203 17.427 14.833 17.3239 15.3594M17.0392 8.06242H22.287C21.4849 6.43546 20.3863 5.12808 18.9911 4.14028C17.5959 3.15248 15.9693 2.524 14.1115 2.25483C14.7502 3.04182 15.3246 3.94203 15.8347 4.95547C16.3448 5.96805 16.7463 7.0037 17.0392 8.06242ZM9.11006 8.06242H15.628C15.2667 6.85929 14.8209 5.77151 14.2908 4.7991C13.7606 3.82668 13.12 2.92262 12.3691 2.08692C11.6181 2.92177 10.9775 3.82582 10.4473 4.7991C9.91716 5.77237 9.4705 6.86014 9.11006 8.06242ZM2.45246 8.06242H7.70024C7.99316 7.00455 8.39466 5.9689 8.90475 4.95547C9.41483 3.94203 9.98925 3.04182 10.628 2.25483C8.75373 2.52485 7.12309 3.15718 5.73609 4.15181C4.34909 5.14816 3.25409 6.45127 2.45109 8.06114" fill="white"/>
</svg>
