<svg width="18" height="13" viewBox="0 0 18 13" fill="none" xmlns="http://www.w3.org/2000/svg">
<path d="M17.0031 2.10645C17.3781 3.41895 17.3781 6.23145 17.3781 6.23145C17.3781 6.23145 17.3781 9.0127 17.0031 10.3564C16.8156 11.1064 16.2219 11.6689 15.5031 11.8564C14.1594 12.2002 8.84686 12.2002 8.84686 12.2002C8.84686 12.2002 3.50311 12.2002 2.15936 11.8564C1.44061 11.6689 0.846863 11.1064 0.659363 10.3564C0.284363 9.0127 0.284363 6.23145 0.284363 6.23145C0.284363 6.23145 0.284363 3.41895 0.659363 2.10645C0.846863 1.35645 1.44061 0.762695 2.15936 0.575195C3.50311 0.200195 8.84686 0.200195 8.84686 0.200195C8.84686 0.200195 14.1594 0.200195 15.5031 0.575195C16.2219 0.762695 16.8156 1.35645 17.0031 2.10645ZM7.09686 8.7627L11.5344 6.23145L7.09686 3.7002V8.7627Z" fill="white" fill-opacity="0.8"/>
</svg>
